{"title":"The Exorcist (1973) Extended Directors Cut 3D.mkv","uid":7923366,"size":12370982777,"categoryP":"video","categoryS":"3d","magnet":"?xt=urn:btih:6c4d0703875acb9bcc2e5c4e9fe9ea7b0ee359b9&amp;dn=The+Exorcist+%281973%29+Extended+Directors+Cut+3D.mkv&amp;tr=udp%3A%2F%2Ftracker.openbittorrent.com%3A80&amp;tr=udp%3A%2F%2Fopen.demonii.com%3A1337&amp;tr=udp%3A%2F%2Ftracker.coppersurfer.tk%3A6969&amp;tr=udp%3A%2F%2Fexodus.desync.com%3A6969","seeders":2,"leechers":1,"uploader":"Beebe85","files":1,"time":1355521109,"description":"The Exorcist (1973) Extended Directors Cut Blu ray rip  720p\n\nDVDFAB 3D converted 3DTV SBS active shutter\n\n &lt;a href=&quot;\nhttp://www.imdb.com/title/tt0070047/&quot; rel=&quot;nofollow&quot; target=&quot;_NEW&quot;&gt;\nhttp://www.imdb.com/title/tt0070047/&lt;/a&gt;\n\n\n\n\n Video\nID                             : 1\nFormat                         : AVC\nFormat/Info                    : Advanced Video Codec\nFormat profile                 : &lt;a class=&quot;__cf_email__&quot; href=&quot;/cdn-cgi/l/email-protection&quot; data-cfemail=&quot;c880a1afa08884fce6f9&quot;&gt;[email&amp;#160;protected]&lt;/a&gt;&lt;script cf-hash='f9e31' type=&quot;text/javascript&quot;&gt;\n/* &lt;![CDATA[ */!function(){try{var t=&quot;currentScript&quot;in document?document.currentScript:function(){for(var t=document.getElementsByTagName(&quot;script&quot;),e=t.length;e--;)if(t[e].getAttribute(&quot;cf-hash&quot;))return t[e]}();if(t&amp;&amp;t.previousSibling){var e,r,n,i,c=t.previousSibling,a=c.getAttribute(&quot;data-cfemail&quot;);if(a){for(e=&quot;&quot;,r=parseInt(a.substr(0,2),16),n=2;a.length-n;n+=2)i=parseInt(a.substr(n,2),16)^r,e+=String.fromCharCode(i);e=document.createTextNode(e),c.parentNode.replaceChild(e,c)}}}catch(u){}}();/* ]]&gt; */&lt;/script&gt;\nFormat settings, CABAC         : Yes\nFormat settings, ReFrames      : 2 frames\nFormat settings, GOP           : M=3, N=15\nCodec ID                       : V_MPEG4/ISO/AVC\nDuration                       : 2h 12mn\nBit rate mode                  : Variable\nBit rate                       : 11.7 Mbps\nMaximum bit rate               : 18.0 Mbps\nWidth                          : 1280 pixels\nHeight                         : 720 pixels\nDisplay aspect ratio           : 16:9\nFrame rate                     : 23.976 fps\nColor space                    : YUV\nChroma subsampling             : 4:2:0\nBit depth                      : 8 bits\nScan type                      : Progressive\nBits/(Pixel*Frame)             : 0.530\nStream size                    : 10.8 GiB (94%)\nDefault                        : Yes\nForced                         : No\n\nAudio\nID                             : 2\nFormat                         : AC-3\nFormat/Info                    : Audio Coding 3\nMode extension                 : CM (complete main)\nCodec ID                       : A_AC3\nDuration                       : 2h 12mn\nBit rate mode                  : Constant\nBit rate                       : 512 Kbps\nChannel(s)                     : 6 channels\nChannel positions              : Front: L C R, Side: L R, LFE\nSampling rate                  : 48.0 KHz\nBit depth                      : 16 bits\nCompression mode               : Lossy\nStream size                    : 485 MiB (4%)\nDefault                        : Yes\nForced                         : No","torrent":{"xt":"urn:btih:6c4d0703875acb9bcc2e5c4e9fe9ea7b0ee359b9","amp;dn":"The+Exorcist+%281973%29+Extended+Directors+Cut+3D.mkv","amp;tr":["udp%3A%2F%2Ftracker.openbittorrent.com%3A80","udp%3A%2F%2Fopen.demonii.com%3A1337","udp%3A%2F%2Ftracker.coppersurfer.tk%3A6969","udp%3A%2F%2Fexodus.desync.com%3A6969"],"infoHash":"6c4d0703875acb9bcc2e5c4e9fe9ea7b0ee359b9","infoHashBuffer":{"type":"Buffer","data":[108,77,7,3,135,90,203,155,204,46,92,78,159,233,234,123,14,227,89,185]},"announce":[],"urlList":[]}}